<svg width="160" height="160" viewBox="0 0 160 160" fill="none" xmlns="http://www.w3.org/2000/svg">
  <rect x="38" y="20" width="84" height="10" rx="5" fill="currentColor"/>
  <path d="M80 30V56" stroke="currentColor" stroke-width="8" stroke-linecap="round"/>
  <path d="M52 60H108C112.418 60 116 63.582 116 68V100C116 104.418 112.418 108 108 108H66C61.582 108 58 111.582 58 116V122" stroke="currentColor" stroke-width="8" stroke-linecap="round" stroke-linejoin="round"/>
  <path d="M58 122C58 130.837 65.1634 138 74 138H86" stroke="currentColor" stroke-width="8" stroke-linecap="round" stroke-linejoin="round"/>
  <circle cx="64" cy="82" r="8" fill="currentColor"/>
  <circle cx="96" cy="82" r="8" fill="currentColor" opacity="0.72"/>
  <circle cx="80" cy="124" r="8" fill="currentColor" opacity="0.86"/>
  <path d="M102 118C102 130.15 92.1503 140 80 140" stroke="currentColor" stroke-width="8" stroke-linecap="round"/>
</svg>
