<svg xmlns="http://www.w3.org/2000/svg" viewBox="0 0 1000 1000" fill="none">

<rect x="245" y="150" width="510" height="46" rx="14" fill="#C45B28"/>
<rect x="245" y="820" width="510" height="46" rx="14" fill="#C45B28"/>
<path d="M 500 265 L 735 500 L 500 735 L 265 500 Z" stroke="#C45B28" stroke-width="34" stroke-linejoin="round"/>
<path d="M500 196 V 247" stroke="#C45B28" stroke-width="18" stroke-linecap="round" opacity="0.92"/>
<path d="M500 753 V 820" stroke="#C45B28" stroke-width="18" stroke-linecap="round" opacity="0.92"/>

<circle cx="500" cy="500" r="170" stroke="#C45B28" stroke-width="16" opacity="0.35"/>
<circle cx="500" cy="350" r="22" fill="#C45B28"/>
<circle cx="630" cy="500" r="22" fill="#C45B28"/>
<circle cx="500" cy="650" r="22" fill="#C45B28"/>
<circle cx="370" cy="500" r="22" fill="#C45B28"/>
<path d="M500 350 C578 360 620 410 630 500" stroke="#C45B28" stroke-width="22" stroke-linecap="round"/>
<path d="M616 472 L630 500 L602 500 Z" fill="#C45B28"/>
<path d="M630 500 C620 588 574 632 500 650" stroke="#C45B28" stroke-width="22" stroke-linecap="round"/>
<path d="M528 650 L500 650 L514 622 Z" fill="#C45B28"/>
<path d="M500 650 C420 638 380 592 370 500" stroke="#C45B28" stroke-width="22" stroke-linecap="round"/>
<path d="M384 528 L370 500 L398 500 Z" fill="#C45B28"/>
<path d="M370 500 C380 410 424 362 500 350" stroke="#C45B28" stroke-width="22" stroke-linecap="round"/>
<path d="M486 378 L500 350 L472 350 Z" fill="#C45B28"/>
<circle cx="500" cy="500" r="18" fill="#C45B28"/>
</svg>