<svg xmlns="http://www.w3.org/2000/svg" viewBox="0 0 1000 1000" fill="none">

<rect x="245" y="150" width="510" height="46" rx="14" fill="#C45B28"/>
<rect x="245" y="820" width="510" height="46" rx="14" fill="#C45B28"/>
<path d="M 500 265 L 735 500 L 500 735 L 265 500 Z" stroke="#C45B28" stroke-width="34" stroke-linejoin="round"/>
<path d="M500 196 V 247" stroke="#C45B28" stroke-width="18" stroke-linecap="round" opacity="0.92"/>
<path d="M500 753 V 820" stroke="#C45B28" stroke-width="18" stroke-linecap="round" opacity="0.92"/>

<circle cx="500" cy="500" r="44" stroke="#C45B28" stroke-width="24"/>
<circle cx="500" cy="500" r="12" fill="#C45B28"/>
<polygon points="500,360 610,415 610,585 500,640 390,585 390,415" stroke="#D4915C" stroke-width="16" stroke-linejoin="round"/>
<path d="M500 500 L500 360" stroke="#D4915C" stroke-width="12" stroke-linecap="round" opacity="0.85"/>
<circle cx="500" cy="360" r="20" fill="#C45B28"/>
<path d="M500 500 L610 415" stroke="#D4915C" stroke-width="12" stroke-linecap="round" opacity="0.85"/>
<circle cx="610" cy="415" r="20" fill="#C45B28"/>
<path d="M500 500 L610 585" stroke="#D4915C" stroke-width="12" stroke-linecap="round" opacity="0.85"/>
<circle cx="610" cy="585" r="20" fill="#C45B28"/>
<path d="M500 500 L500 640" stroke="#D4915C" stroke-width="12" stroke-linecap="round" opacity="0.85"/>
<circle cx="500" cy="640" r="20" fill="#C45B28"/>
<path d="M500 500 L390 585" stroke="#D4915C" stroke-width="12" stroke-linecap="round" opacity="0.85"/>
<circle cx="390" cy="585" r="20" fill="#C45B28"/>
<path d="M500 500 L390 415" stroke="#D4915C" stroke-width="12" stroke-linecap="round" opacity="0.85"/>
<circle cx="390" cy="415" r="20" fill="#C45B28"/>
</svg>